<svg width="256" height="256" viewBox="0 0 256 256" fill="none" xmlns="http://www.w3.org/2000/svg">
  <rect width="256" height="256" rx="64" fill="#03170F"/>
  <circle cx="128" cy="128" r="98" fill="url(#paint0_radial)" fill-opacity="0.75"/>
  <path
    d="M128 30L196 56V120C196 167.2 166 207.2 128 226C90 207.2 60 167.2 60 120V56L128 30Z"
    fill="#052A19"
    stroke="#E8D38A"
    stroke-width="8"
  />
  <path
    d="M128 58C158.928 58 184 83.0721 184 114C184 144.928 158.928 170 128 170C97.0721 170 72 144.928 72 114C72 83.0721 97.0721 58 128 58Z"
    fill="#0B3D29"
    stroke="#BF994A"
    stroke-width="5"
  />
  <path d="M90 104C103.5 90 152.5 90 166 104" stroke="#E8D38A" stroke-width="4" stroke-linecap="round"/>
  <path d="M87 122C104 134 152 134 169 122" stroke="#E8D38A" stroke-width="4" stroke-linecap="round"/>
  <path d="M102 74C114 92 114 136 102 154" stroke="#E8D38A" stroke-width="4" stroke-linecap="round"/>
  <path d="M154 74C142 92 142 136 154 154" stroke="#E8D38A" stroke-width="4" stroke-linecap="round"/>
  <path d="M128 58V170" stroke="#E8D38A" stroke-width="4" stroke-linecap="round"/>
  <path d="M92 185H164" stroke="#E8D38A" stroke-width="4" stroke-linecap="round"/>
  <text
    x="128"
    y="201"
    text-anchor="middle"
    fill="#F7F7F2"
    font-family="'Arial Narrow', Arial, sans-serif"
    font-size="26"
    font-weight="700"
    letter-spacing="4"
  >
    GDS
  </text>
  <defs>
    <radialGradient id="paint0_radial" cx="0" cy="0" r="1" gradientUnits="userSpaceOnUse" gradientTransform="translate(128 62) rotate(90) scale(164)">
      <stop stop-color="#0B3D29"/>
      <stop offset="1" stop-color="#03170F"/>
    </radialGradient>
  </defs>
</svg>
